<?xml version="1.0" encoding="UTF-8"?>
<!DOCTYPE svg PUBLIC "-//W3C//DTD SVG 1.1//EN" "http://www.w3.org/Graphics/SVG/1.1/DTD/svg11.dtd">
<!-- Creator: CorelDRAW 2019 (64 Bit) -->
<svg xmlns="http://www.w3.org/2000/svg" xml:space="preserve" width="210mm" height="297mm" version="1.1" style="shape-rendering:geometricPrecision; text-rendering:geometricPrecision; image-rendering:optimizeQuality; fill-rule:evenodd; clip-rule:evenodd"
viewBox="0 0 21000 29700"
 xmlns:xlink="http://www.w3.org/1999/xlink">
 <defs>
  <style type="text/css">
   <![CDATA[
    .fil1 {fill:none}
    .fil6 {fill:#28373D}
    .fil11 {fill:#4C697B}
    .fil46 {fill:#7AC05E}
    .fil10 {fill:#B0763A}
    .fil2 {fill:#ECCE7F}
    .fil0 {fill:#FDF7C5}
    .fil18 {fill:#28373D;fill-rule:nonzero}
    .fil7 {fill:#4C697B;fill-rule:nonzero}
    .fil3 {fill:#7AC05E;fill-rule:nonzero}
    .fil12 {fill:#91B3FA;fill-rule:nonzero}
    .fil19 {fill:#B0763A;fill-rule:nonzero}
    .fil47 {fill:#BDD0FB;fill-rule:nonzero}
    .fil5 {fill:#C0D6FC;fill-rule:nonzero}
    .fil13 {fill:#D3E1FD;fill-rule:nonzero}
    .fil4 {fill:#DCE6FD;fill-rule:nonzero}
    .fil21 {fill:#E0EAFE;fill-rule:nonzero}
    .fil8 {fill:#ECCE7F;fill-rule:nonzero}
    .fil20 {fill:#EDF2FE;fill-rule:nonzero}
    .fil14 {fill:#F3F7FE;fill-rule:nonzero}
    .fil15 {fill:white;fill-rule:nonzero}
    .fil45 {fill:url(#id1)}
    .fil34 {fill:url(#id2)}
    .fil38 {fill:url(#id3)}
    .fil41 {fill:url(#id4)}
    .fil40 {fill:url(#id5)}
    .fil32 {fill:url(#id6)}
    .fil39 {fill:url(#id7)}
    .fil35 {fill:url(#id8)}
    .fil43 {fill:url(#id9)}
    .fil42 {fill:url(#id10)}
    .fil16 {fill:url(#id11)}
    .fil23 {fill:url(#id12)}
    .fil27 {fill:url(#id13)}
    .fil25 {fill:url(#id14)}
    .fil17 {fill:url(#id15)}
    .fil37 {fill:url(#id16)}
    .fil26 {fill:url(#id17)}
    .fil36 {fill:url(#id18)}
    .fil28 {fill:url(#id19)}
    .fil29 {fill:url(#id20)}
    .fil33 {fill:url(#id21)}
    .fil30 {fill:url(#id22)}
    .fil44 {fill:url(#id23)}
    .fil22 {fill:url(#id24)}
    .fil24 {fill:url(#id25)}
    .fil9 {fill:url(#id26)}
    .fil31 {fill:url(#id27)}
   ]]>
  </style>
   <clipPath id="id0">
    <path d="M1440.59 12925.76l17727.87 0 0 8521.14 -17727.87 0 0 -8521.14z"/>
   </clipPath>
  <linearGradient id="id1" gradientUnits="userSpaceOnUse" x1="13235.44" y1="19999.33" x2="13541.06" y2="19999.33">
   <stop offset="0" style="stop-opacity:1; stop-color:#E1473D"/>
   <stop offset="1" style="stop-opacity:1; stop-color:#E9605A"/>
  </linearGradient>
  <linearGradient id="id2" gradientUnits="userSpaceOnUse" x1="13213.98" y1="20033.7" x2="13042.29" y2="20238.54">
   <stop offset="0" style="stop-opacity:1; stop-color:#FDF53F"/>
   <stop offset="0.658824" style="stop-opacity:1; stop-color:#E57A58"/>
   <stop offset="1" style="stop-opacity:1; stop-color:#D93C65"/>
  </linearGradient>
  <linearGradient id="id3" gradientUnits="userSpaceOnUse" x1="13576.54" y1="19445.45" x2="13539.93" y2="19139.51">
   <stop offset="0" style="stop-opacity:1; stop-color:#FEBBBA"/>
   <stop offset="1" style="stop-opacity:1; stop-color:#FF928E"/>
  </linearGradient>
  <linearGradient id="id4" gradientUnits="userSpaceOnUse" x1="11494.35" y1="20839.37" x2="11561.9" y2="21086.56">
   <stop offset="0" style="stop-opacity:1; stop-color:#09005D"/>
   <stop offset="1" style="stop-opacity:1; stop-color:#1A0F91"/>
  </linearGradient>
  <linearGradient id="id5" gradientUnits="userSpaceOnUse" xlink:href="#id3" x1="13503.61" y1="19209.2" x2="13648.05" y2="18827.18">
  </linearGradient>
  <linearGradient id="id6" gradientUnits="userSpaceOnUse" xlink:href="#id3" x1="8861.71" y1="17057.6" x2="8986" y2="17057.6">
  </linearGradient>
  <linearGradient id="id7" gradientUnits="userSpaceOnUse" xlink:href="#id3" x1="13376.42" y1="19141.4" x2="13563.86" y2="18707.52">
  </linearGradient>
  <linearGradient id="id8" gradientUnits="userSpaceOnUse" xlink:href="#id4" x1="12192.79" y1="20831.73" x2="11984.37" y2="21082.87">
  </linearGradient>
  <linearGradient id="id9" gradientUnits="userSpaceOnUse" xlink:href="#id3" x1="12885.43" y1="20174.81" x2="12398.77" y2="18707.64">
  </linearGradient>
  <linearGradient id="id10" gradientUnits="userSpaceOnUse" xlink:href="#id4" x1="12357.28" y1="19944.12" x2="12761.65" y2="20053.98">
  </linearGradient>
  <linearGradient id="id11" gradientUnits="userSpaceOnUse" x1="13269.72" y1="13618.18" x2="12787.13" y2="15122.12">
   <stop offset="0" style="stop-opacity:1; stop-color:#FF928E"/>
   <stop offset="1" style="stop-opacity:1; stop-color:#FE7062"/>
  </linearGradient>
  <linearGradient id="id12" gradientUnits="userSpaceOnUse" xlink:href="#id3" x1="8594.3" y1="17339.32" x2="7919.08" y2="18272.67">
  </linearGradient>
  <linearGradient id="id13" gradientUnits="userSpaceOnUse" xlink:href="#id3" x1="8019.11" y1="18183.38" x2="7963.65" y2="17776.39">
  </linearGradient>
  <linearGradient id="id14" gradientUnits="userSpaceOnUse" xlink:href="#id3" x1="7370.84" y1="21743.13" x2="7065.43" y2="18321.31">
  </linearGradient>
  <linearGradient id="id15" gradientUnits="userSpaceOnUse" xlink:href="#id11" x1="13283.42" y1="13632.4" x2="12831.74" y2="15135.39">
  </linearGradient>
  <linearGradient id="id16" gradientUnits="userSpaceOnUse" xlink:href="#id3" x1="11643.46" y1="20753.49" x2="11719.98" y2="21021.93">
  </linearGradient>
  <linearGradient id="id17" gradientUnits="userSpaceOnUse" x1="7660.02" y1="18176.38" x2="8291.31" y2="18176.38">
   <stop offset="0" style="stop-opacity:1; stop-color:#DAE3FE"/>
   <stop offset="1" style="stop-opacity:1; stop-color:#E9EFFD"/>
  </linearGradient>
  <linearGradient id="id18" gradientUnits="userSpaceOnUse" xlink:href="#id3" x1="12231.83" y1="20776.13" x2="12112.77" y2="20920.16">
  </linearGradient>
  <linearGradient id="id19" gradientUnits="userSpaceOnUse" xlink:href="#id3" x1="8115.19" y1="17674.25" x2="7857.76" y2="16825.44">
  </linearGradient>
  <linearGradient id="id20" gradientUnits="userSpaceOnUse" xlink:href="#id1" x1="7311.97" y1="18169.59" x2="7836.96" y2="17395.57">
  </linearGradient>
  <linearGradient id="id21" gradientUnits="userSpaceOnUse" xlink:href="#id3" x1="7035.94" y1="18744.97" x2="8164.95" y2="18241.8">
  </linearGradient>
  <linearGradient id="id22" gradientUnits="userSpaceOnUse" xlink:href="#id3" x1="7984.84" y1="17685.15" x2="7756.05" y2="16870.25">
  </linearGradient>
  <linearGradient id="id23" gradientUnits="userSpaceOnUse" xlink:href="#id11" x1="13271.66" y1="18542.8" x2="13703.21" y2="20927.81">
  </linearGradient>
  <linearGradient id="id24" gradientUnits="userSpaceOnUse" xlink:href="#id1" x1="7259.86" y1="18258.08" x2="7869.16" y2="17431.12">
  </linearGradient>
  <linearGradient id="id25" gradientUnits="userSpaceOnUse" xlink:href="#id3" x1="7986.6" y1="21727.88" x2="7683.23" y2="18149.62">
  </linearGradient>
  <linearGradient id="id26" gradientUnits="userSpaceOnUse" x1="11537.51" y1="17384.53" x2="16066.78" y2="17384.53">
   <stop offset="0" style="stop-opacity:1; stop-color:#D8D9FF"/>
   <stop offset="1" style="stop-opacity:1; stop-color:#D5D5F9"/>
  </linearGradient>
  <linearGradient id="id27" gradientUnits="userSpaceOnUse" xlink:href="#id3" x1="8680.53" y1="17380.39" x2="8030.85" y2="18284.3">
  </linearGradient>
 </defs>
 <g id="Camada_x0020_1">
  <metadata id="CorelCorpID_0Corel-Layer"/>
  <g>
  </g>
  <g style="clip-path:url(#id0)">
   <g>
    <path class="fil0" d="M2615.9 16972.55c-878.14,-1825.02 501.87,-2693.46 1823.35,-2328.34 1970.03,544.3 1753.63,1172.18 4138.85,1060.6 71.86,-3.36 990.19,306.91 1084.79,663.73 227.58,858.43 137.2,1348.68 -310.7,2174.12 -600.17,1106.06 -5944.3,75.87 -6736.29,-1570.11z"/>
    <path class="fil0" d="M17940.39 19187.27c137.31,303.97 212.51,1862.66 -1108.98,1680.1 -1970.03,-272.15 -1753.63,-586.09 -4138.85,-530.3 -71.86,1.68 -990.19,-153.45 -1084.79,-331.86 -227.58,-429.22 -137.21,-674.34 310.7,-1087.06 600.17,-553.04 5619.52,-621.76 6021.92,269.12z"/>
   </g>
  </g>
  <polygon class="fil1" points="1440.59,12925.76 19168.46,12925.76 19168.46,21446.9 1440.59,21446.9 "/>
  <path class="fil2" d="M10158.95 20934.63c-170.37,0 -339.42,-12.55 -505.99,-38.21 -249.74,-38.47 -934.4,-153.05 -1540.58,-693.62 -947.07,-844.6 -1289.84,-2361.17 -882.19,-3678.9 9.69,77.26 19.16,157.12 28.39,239.85 29.52,264.73 86.59,504.45 161.92,720.55 42.22,1174.27 827.33,2166.58 1916.49,2554.28l0 129.54c0,44.03 46.23,79.73 103.26,79.73l745.82 0c35.93,0 67.76,-14.21 86.28,-35.91 27.22,0.72 54.43,1.08 81.83,1.08 911.75,0 1749.33,-418 2307.88,-1061.7l278.05 102c5.7,2.1 11.27,3.08 16.65,3.08 35.17,0 59.13,-41.57 33.09,-71.37l-184.91 -211.53c303.89,-409.16 500.99,-893.39 546.97,-1411l270.15 12.7c2.08,0.1 4.09,0.15 6.16,0.15 70.27,0 127.98,-57.04 127.98,-128.08l0 -609.44c0,-70.74 -57.38,-128.08 -128.11,-128.08l-340.82 0c-82.06,-332.48 -228.76,-640.22 -426.18,-913.02l504.88 10.7c0.64,0 1.23,0.03 1.88,0.03 42.48,0 77.85,-31.4 83.74,-72.43l60.43 0c14.83,0 29.28,-2.9 42.75,-8.38 455.2,883.81 465.24,2028.15 67.17,2965.41 -592.32,1394.62 -2063.36,2242.57 -3462.99,2242.57zm-2156.54 -5327.86c-59.85,-75.65 -120.41,-147.09 -181,-214.58 51.62,-65.41 105.41,-128.63 161.24,-189.77 4.32,130.31 10.41,265.55 19.76,404.35zm792.48 -619.13c-47.67,-125.78 -101.73,-240.94 -159.28,-345.8 599.17,-401.37 1306.82,-619.78 1998.11,-619.78 27.97,0 55.84,0.39 83.75,1.11 183.27,4.72 745.05,27.13 1364.11,309.53l-411.74 12.17c-64.42,1.95 -116.04,54.02 -117.4,118.4l-6.82 321.06c-330.86,-132.32 -690.49,-211.21 -1064.46,-225.85l-60.34 -211.99c-6.05,-21.31 -24.69,-31.86 -43.34,-31.86 -19.03,0 -38.05,11.01 -43.69,32.9l-54.09 209.4c-544.71,13.08 -1052.68,169.11 -1484.81,430.71z"/>
  <path class="fil3" d="M7900.13 13888.9c-11.29,-35.75 30.51,-64.71 60.4,-42.1 303.5,229.86 1049.03,935.53 1027.85,2309.33 -26.56,1723.63 393.87,2306.89 875.3,2638.76 0,0 -624.85,-113.74 -1073.02,-703.3 -1100.33,-1447.47 -689.74,-3566.98 -890.53,-4202.69z"/>
  <path class="fil4" d="M8388.13 15284.09c-22.05,-108.74 -46.02,-217.17 -71.86,-325.14 -44.05,-188.35 -95.02,-375.08 -149.66,-560.84 -1.49,-5.11 1.28,-10.62 6.37,-12.37 1.08,-0.32 2.18,-0.51 3.26,-0.51 4.17,0 8.07,2.59 9.5,6.8 62.99,183.49 118.93,369.5 169.92,556.95 26.51,99.29 51.33,199.03 74.53,299.23 -14.12,11.79 -28.17,23.77 -42.06,35.88z"/>
  <path class="fil3" d="M8805.54 18991.4c-13.14,71.59 -95.09,106.47 -156.31,67.11 -337.72,-217.11 -1237.04,-917.34 -1390.65,-2294.76 -129.72,-1163.2 -310.61,-1781.61 -412.17,-2056.62 -21.48,-58.16 43.78,-109.98 95.6,-75.91 571.72,375.53 2339.97,1767.01 1863.53,4360.18z"/>
  <path class="fil5" d="M7584.86 16444.1c-47.8,-189.32 -88.45,-382.56 -119.11,-577.23 -2.43,-15.49 8.15,-30.04 23.65,-32.5 1.5,-0.22 2.99,-0.33 4.45,-0.33 13.74,0 25.83,9.99 28.04,24 26.16,166.14 59.64,331.12 98.69,493.62 -12.45,30.56 -24.36,61.39 -35.72,92.44z"/>
  <path class="fil6" d="M10354.18 20213.02c-27.4,0 -54.61,-0.36 -81.83,-1.08 9.66,-11.3 15.67,-24.64 16.8,-39.06l26.51 -340.34c14.42,0.24 28.94,0.36 43.41,0.36 743.89,0 1430.75,-321.46 1912.04,-825.01l390.95 143.43c-558.55,643.7 -1396.13,1061.7 -2307.88,1061.7zm-1017.19 -174.44c-1089.16,-387.7 -1874.27,-1380.01 -1916.49,-2554.28 -1.18,-33.08 -1.79,-66.43 -1.79,-99.8 0,-329.69 58.53,-646.16 166.15,-940.4 11.36,-31.05 23.27,-61.88 35.72,-92.44 103.45,-254.01 244.03,-490.24 415.15,-702.27 106.22,-131.54 224.12,-253.7 352.4,-365.3 13.89,-12.11 27.94,-24.09 42.06,-35.88 114.17,-95.53 236.1,-182.78 364.7,-260.57 432.13,-261.6 940.1,-417.63 1484.81,-430.71l-30.14 116.71c-356.66,12.63 -701.81,88.87 -1027.49,227.08 -10.24,4.34 -14.87,15.94 -10.37,25.78 3.33,7.32 10.79,11.66 18.6,11.66 2.71,0 5.48,-0.52 8.14,-1.62 317.37,-134.78 653.54,-209.72 1000.92,-223.45l-59.16 229.02c-698.81,46.83 -1319.77,365.88 -1749.48,847.91l-206.32 10.52 0 0c-0.08,0 -0.17,0 -0.25,0.03 -0.05,0 -0.08,0 -0.13,0 -0.05,0 -0.11,0 -0.16,0 -0.05,0 -0.07,0 -0.12,0 -0.05,0.02 -0.1,0.02 -0.16,0.02 -0.05,0 -0.07,0 -0.13,0 -0.05,0 -0.1,0 -0.13,0 -0.05,0.03 -0.1,0.03 -0.14,0.03 -0.03,0 -0.08,0 -0.13,0 -0.06,0 -0.11,0 -0.16,0.03 -0.02,0 -0.08,0 -0.1,0 -0.05,0 -0.13,0 -0.18,0 -0.02,0 -0.05,0 -0.07,0.02 -0.08,0 -0.13,0 -0.21,0 -0.03,0 -0.03,0 -0.05,0 -0.08,0 -0.15,0.03 -0.21,0.03 -0.03,0 -0.03,0 -0.05,0 -47.52,3.53 -84.37,39.9 -84.37,83.77l0 310.43c-203.55,352.2 -319.56,757.87 -319.56,1189.6 0,1001.88 624.54,1863.19 1518.9,2242.26l0 411.82zm3467.95 -1065.08l-230.26 -263.25c255.19,-405.35 395.81,-796.27 441.86,-1163.5l335.37 15.75c-45.98,517.61 -243.08,1001.84 -546.97,1411zm482.33 -2263.75l-333.17 0c-100.46,-347.43 -291.59,-658.86 -548.47,-922.7l251.37 5.35c3.37,4.2 6.67,8.42 9.98,12.65 4.01,5.12 10.1,7.79 16.26,7.79 4.21,0 8.48,-1.31 12.17,-3.92 5.25,-3.82 8.03,-9.66 8.03,-15.55l157.65 3.36c197.42,272.8 344.12,580.54 426.18,913.02zm-1750.1 -1526.44c-295.32,-136.4 -619.52,-233.04 -958.87,-283.49l-52.45 -184.27c354.28,19.82 698.67,101.23 1016.22,236.15l-4.9 231.61zm5.79 -273.84c-321.75,-134.66 -670.21,-215.17 -1028.4,-233.62l-33.4 -117.37c373.97,14.64 733.6,93.53 1064.46,225.85l-2.66 125.14z"/>
  <path class="fil7" d="M13131.76 16696.77c1.75,0 3.5,-0.2 5.25,-0.66 10.81,-2.77 17.29,-13.48 14.38,-23.92 -31.61,-114.28 -71.96,-227.66 -119.96,-336.94 -4.33,-9.94 -16.32,-14.47 -26.55,-10.4 -10.3,4.25 -15.09,15.67 -10.75,25.64 47.28,107.59 86.98,219.2 118.07,331.78 2.4,8.74 10.62,14.5 19.56,14.5z"/>
  <path class="fil7" d="M12683.24 15812.84c4.21,0 8.48,-1.31 12.17,-3.92 8.94,-6.51 10.69,-18.77 3.95,-27.35 -543.86,-694.96 -1419.91,-1109.81 -2343.44,-1109.81 -394.41,0 -775.91,77.08 -1133.85,228.96 -10.24,4.34 -14.87,15.94 -10.37,25.78 4.49,9.85 16.47,14.32 26.74,10.04 352.74,-149.81 728.73,-225.72 1117.48,-225.72 910.88,0 1774.81,409.08 2311.06,1094.23 4.01,5.12 10.1,7.79 16.26,7.79z"/>
  <path class="fil0" d="M10359.07 19832.9c-14.47,0 -28.99,-0.12 -43.41,-0.36l22.31 -286.61c3.59,-46.17 -44.15,-84.52 -102.93,-84.52 -2.82,0 -5.64,0.08 -8.51,0.26l-794.6 49.66c-53.63,3.36 -94.94,37.93 -94.94,79.47l0 35.96c-894.36,-379.07 -1518.9,-1240.38 -1518.9,-2242.26 0,-431.73 116.01,-837.4 319.56,-1189.6l0 438.23c0,46.4 41.13,84.05 91.87,84.05l1256.78 0c48.79,0 89.08,-34.91 91.74,-79.5l48.48 -815.21c2.9,-48.39 -39.34,-88.62 -91.61,-88.62 -1.63,0 -3.25,0.05 -4.91,0.13 -0.11,0 -0.21,0 -0.31,0l0 0 -1098.97 56.04c429.71,-482.03 1050.67,-801.08 1749.48,-847.91l-212.02 820.99c-7.54,29.09 16.3,53.94 43.64,53.94 7.21,0 14.72,-1.75 21.91,-5.62l176.77 -94.93c7.09,-3.79 14.58,-5.54 21.85,-5.54 23.28,0 44.64,17.78 45.02,42.75l-2.81 1338.5 -13.04 245.23 71.27 52.73c2.39,3.2 5.28,6.17 8.64,8.73l1379.53 1059.42c23.38,17.96 22.84,52.27 -1.08,69.05l-193.57 135.61c-28.81,20.16 -22.48,63.41 11.09,75.73l733.71 269.19c-481.29,503.55 -1168.15,825.01 -1912.04,825.01zm-1814.92 -1294.25c-23.12,0 -53.9,11.25 -81.92,31.63 -43.03,31.38 -63.19,72.53 -44.98,91.95 6.35,6.79 16.55,10.01 28.94,10.01 23.1,0 53.91,-11.22 81.91,-31.63 43.05,-31.37 63.18,-72.53 44.99,-91.94 -6.35,-6.76 -16.54,-10.02 -28.94,-10.02z"/>
  <path class="fil8" d="M8087.12 17494.55c6.26,103.93 98.8,183.27 206.66,177.23 107.85,-6.05 190.22,-95.2 183.91,-199.13 -6.27,-103.93 -98.78,-183.27 -206.65,-177.23 -107.86,6.05 -190.21,95.2 -183.92,199.13z"/>
  <path class="fil8" d="M10740.8 19186.12c-106.29,18.7 -176.69,116.89 -157.27,219.28 19.41,102.42 121.29,170.29 227.57,151.57 106.29,-18.7 176.72,-116.89 157.31,-219.28 -19.42,-102.42 -121.32,-170.29 -227.61,-151.57z"/>
  <path class="fil8" d="M9980.13 15173.21c-106.28,18.72 -176.71,116.91 -157.3,219.31 19.41,102.4 121.3,170.27 227.6,151.56 106.26,-18.72 176.69,-116.91 157.28,-219.31 -19.39,-102.4 -121.29,-170.28 -227.58,-151.56z"/>
  <path class="fil8" d="M9350 19293.87c-19.87,48.32 -14.9,93.56 11.11,101.06 26,7.5 63.21,-25.61 83.09,-73.94 19.88,-48.33 14.9,-93.58 -11.09,-101.09 -26.02,-7.48 -63.23,25.61 -83.11,73.97z"/>
  <path class="fil9" d="M8446.19 18672.24c-12.39,0 -22.59,-3.22 -28.94,-10.01 -18.21,-19.42 1.95,-60.57 44.98,-91.95 28.02,-20.38 58.8,-31.63 81.92,-31.63 12.4,0 22.59,3.26 28.94,10.02 18.19,19.41 -1.94,60.57 -44.99,91.94 -28,20.41 -58.81,31.63 -81.91,31.63z"/>
  <path class="fil2" d="M9159.43 15610.08c-29.61,-43.46 -70.87,-65.55 -92.19,-49.36 -21.35,16.13 -14.63,64.51 14.95,107.97 29.61,43.49 70.86,65.62 92.2,49.43 21.33,-16.18 14.62,-64.58 -14.96,-108.04z"/>
  <path class="fil2" d="M11412.29 19139.87c-29.58,-43.46 -70.86,-65.59 -92.17,-49.38 -21.33,16.16 -14.62,64.54 14.96,108.01 29.58,43.48 70.86,65.58 92.17,49.4 21.34,-16.19 14.62,-64.54 -14.96,-108.03z"/>
  <path class="fil0" d="M12574.68 18710.25l-565.68 -646.94c-9.42,-10.77 -22.03,-15.67 -34.42,-15.67 -21.15,0 -41.67,14.32 -44.49,38.09l-22.76 193.67c-2.72,23.1 -22.87,38.08 -44.33,38.08 -8.79,0 -17.83,-2.54 -25.95,-8.04l-1442.25 -979.77c-7.97,-5.38 -17.06,-8 -26.07,-8 -13.53,0 -26.82,5.9 -35.52,17.01 -12.09,15.44 -11.71,36.34 -0.42,51.48l-71.27 -52.73 13.04 -245.23 -0.29 142.07c0.36,23.33 19.82,42.18 44.03,42.67 0.31,0.02 0.64,0.02 0.95,0.02 24.02,0 43.89,-18.24 44.94,-41.47l107.39 -1478.08c1.1,-23.92 21.67,-41.49 44.87,-41.49 4.61,0 9.32,0.69 13.98,2.18l228.84 71.68c4.76,1.49 9.5,2.18 14.11,2.18 28.27,0 51.32,-26.25 43.18,-54.86l-238.26 -837.28c339.35,50.45 663.55,147.09 958.87,283.49l-7.12 335.77c-6.33,45.14 -11.91,81.86 -16.03,108.1 -2.53,16.19 4.94,31.28 17.55,39.57 14.44,58.91 66.97,103.19 130.51,104.54l743.55 15.76c256.88,263.84 448.01,575.27 548.47,922.7l-45.79 0c-70.79,0 -128.12,57.34 -128.12,128.08l0 575.61c0,68.41 53.76,124.72 122.09,127.92l114.26 5.39c-46.05,367.23 -186.67,758.15 -441.86,1163.5z"/>
  <path class="fil10" d="M12956.76 19256.4c-5.38,0 -10.95,-0.98 -16.65,-3.08l-278.05 -102 -390.95 -143.43 -733.71 -269.19c-33.57,-12.32 -39.9,-55.57 -11.09,-75.73l193.57 -135.61c23.92,-16.78 24.46,-51.09 1.08,-69.05l-1379.53 -1059.42c-3.36,-2.56 -6.25,-5.53 -8.64,-8.73 -11.29,-15.14 -11.67,-36.04 0.42,-51.48 8.7,-11.11 21.99,-17.01 35.52,-17.01 9.01,0 18.1,2.62 26.07,8l1442.25 979.77c8.12,5.5 17.16,8.04 25.95,8.04 21.46,0 41.61,-14.98 44.33,-38.08l22.76 -193.67c2.82,-23.77 23.34,-38.09 44.49,-38.09 12.39,0 25,4.9 34.42,15.67l565.68 646.94 230.26 263.25 184.91 211.53c26.04,29.8 2.08,71.37 -33.09,71.37zm-1218 -539.88c-8.86,0 -17.17,5.87 -19.45,14.63 -2.66,10.32 3.72,20.84 14.3,23.74 22.49,6.99 592.1,218.26 1073.79,397.32 2.78,1.03 5.63,1.77 8.42,2.18 2.01,0.31 3.95,0.43 5.89,0.43 12.37,0 23.97,-5.73 31.35,-16.18 10.23,-14.47 8.87,-32.98 -3.43,-46.18l-216.53 -232.72c-4.01,-4.33 -9.65,-6.56 -15.22,-6.56 -4.79,0 -9.58,1.61 -13.4,4.94 -8.29,7.15 -8.88,19.49 -1.36,27.59l216.52 232.73c-316.85,-121.2 -1060.07,-397.31 -1075.76,-401.22 -1.69,-0.46 -3.43,-0.7 -5.12,-0.7z"/>
  <path class="fil2" d="M12821.71 19154.82c-1.94,0 -3.88,-0.12 -5.89,-0.43 -2.79,-0.41 -5.64,-1.15 -8.42,-2.18 -481.69,-179.06 -1051.3,-390.33 -1073.79,-397.32 -10.58,-2.9 -16.96,-13.42 -14.3,-23.74 2.28,-8.76 10.59,-14.63 19.45,-14.63 1.69,0 3.43,0.24 5.12,0.7 15.69,3.91 758.91,280.02 1075.76,401.22l-216.52 -232.73c-7.52,-8.1 -6.93,-20.44 1.36,-27.59 3.82,-3.33 8.61,-4.94 13.4,-4.94 5.57,0 11.21,2.23 15.22,6.56l216.53 232.72c12.3,13.2 13.66,31.71 3.43,46.18 -7.38,10.45 -18.98,16.18 -31.35,16.18z"/>
  <path class="fil10" d="M10319.25 17276.96c-0.31,0 -0.64,0 -0.95,-0.02 -24.21,-0.49 -43.67,-19.34 -44.03,-42.67l0.29 -142.07 2.81 -1338.5c-0.38,-24.97 -21.74,-42.75 -45.02,-42.75 -7.27,0 -14.76,1.75 -21.85,5.54l-176.77 94.93c-7.19,3.87 -14.7,5.62 -21.91,5.62 -27.34,0 -51.18,-24.85 -43.64,-53.94l212.02 -820.99 59.16 -229.02 10.2 -39.45 30.14 -116.71 54.09 -209.4c5.64,-21.89 24.66,-32.9 43.69,-32.9 18.65,0 37.29,10.55 43.34,31.86l60.34 211.99 33.4 117.37 11.29 39.7 52.45 184.27 238.26 837.28c8.14,28.61 -14.91,54.86 -43.18,54.86 -4.61,0 -9.35,-0.69 -14.11,-2.18l-228.84 -71.68c-4.66,-1.49 -9.37,-2.18 -13.98,-2.18 -23.2,0 -43.77,17.57 -44.87,41.49l-107.39 1478.08c-1.05,23.23 -20.92,41.47 -44.94,41.47zm59.06 -2758.31c85.23,317.05 292.03,1055.8 297.98,1070.31 3.12,7.71 10.75,12.37 18.85,12.37 2.48,0 4.97,-0.39 7.4,-1.29 10.29,-3.95 15.42,-15.03 11.63,-25 -7.38,-21.44 -166.17,-587.46 -300.14,-1066.49 -4.66,-16.58 -19.16,-27.66 -37.36,-27.66 -0.36,0 -0.7,0 -1.05,0 -18.24,0.45 -33.09,12.37 -36.96,29.53l-68.13 303.84c-2.35,10.55 4.59,20.98 15.55,23.25 1.43,0.26 2.9,0.45 4.33,0.45 9.25,0 17.67,-6.28 19.75,-15.41l68.15 -303.9z"/>
  <path class="fil2" d="M10695.14 15601.33c-8.1,0 -15.73,-4.66 -18.85,-12.37 -5.95,-14.51 -212.75,-753.26 -297.98,-1070.31l-68.15 303.9c-2.08,9.13 -10.5,15.41 -19.75,15.41 -1.43,0 -2.9,-0.19 -4.33,-0.45 -10.96,-2.27 -17.9,-12.7 -15.55,-23.25l68.13 -303.84c3.87,-17.16 18.72,-29.08 36.96,-29.53 0.35,0 0.69,0 1.05,0 18.2,0 32.7,11.08 37.36,27.66 133.97,479.03 292.76,1045.05 300.14,1066.49 3.79,9.97 -1.34,21.05 -11.63,25 -2.43,0.9 -4.92,1.29 -7.4,1.29z"/>
  <path class="fil2" d="M10163.25 17313.64c0,111.2 93.56,201.32 208.94,201.32 115.4,0 208.93,-90.12 208.93,-201.32 0,-111.18 -93.53,-201.33 -208.93,-201.33 -115.38,0 -208.94,90.15 -208.94,201.33z"/>
  <path class="fil6" d="M13512.02 15735.03l-60.43 0c0.58,-3.92 0.91,-7.94 0.91,-12.02l4.08 -1338.95c0.13,-41.78 -28.5,-76.82 -67.04,-86.73 48.06,8.68 101.17,35.56 112.31,110.05 16.84,113.08 94.18,886.82 125.07,1198.36 3.24,33.09 -7.38,65.87 -29.27,90.54 -11.92,13.5 -26.62,23.79 -42.88,30.37 -13.47,5.48 -27.92,8.38 -42.75,8.38zm-203.7 -1438.73c4.93,-0.78 19.11,-2.66 37.76,-2.66 6.93,0 14.45,0.26 22.35,0.97 -0.39,0 -0.71,0 -1.04,0 -0.9,0 -1.81,0 -2.72,0l-56.35 1.69z"/>
  <path class="fil11" d="M13367.85 15807.46c-0.65,0 -1.24,-0.03 -1.88,-0.03l-504.88 -10.7 -157.65 -3.36 -46.44 -0.97 -251.37 -5.35 -743.55 -15.76c-63.54,-1.35 -116.07,-45.63 -130.51,-104.54 6.09,4.02 13.37,6.35 21.27,6.48l1786.44 27.41c0.2,0 0.39,0 0.52,0 16.91,0 31.28,-12.56 33.42,-29.36 35.24,-279.54 8.29,-1065.71 1.04,-1256.65 -0.84,-22.86 -19.69,-40.87 -42.43,-40.87 -0.45,0 -0.9,0 -1.36,0.07l-1702.48 54.27c-20.75,0.65 -36.78,18.27 -35.62,38.99 21.02,379.23 -30.28,823.28 -62.32,1051.99l7.12 -335.77 4.9 -231.61 0.89 -42.23 2.66 -125.14 6.82 -321.06c1.36,-64.38 52.98,-116.45 117.4,-118.4l411.74 -12.17 1226.74 -36.4 56.35 -1.69c0.91,0 1.82,0 2.72,0 0.33,0 0.65,0 1.04,0 7.25,0.07 14.31,1.04 21.11,2.72 38.54,9.91 67.17,44.95 67.04,86.73l-4.08 1338.95c0,4.08 -0.33,8.1 -0.91,12.02 -5.89,41.03 -41.26,72.43 -83.74,72.43z"/>
  <path class="fil12" d="M11552.84 15673.23c-24.27,-0.33 -42.59,-22.09 -38.82,-46.05 25,-159.01 103.52,-705.99 78.35,-1160.09 -1.16,-20.72 14.87,-38.34 35.62,-38.99l1702.48 -54.27c23.39,-0.78 42.95,17.42 43.79,40.8 7.25,190.94 34.2,977.11 -1.04,1256.65 -2.2,16.99 -16.77,29.61 -33.94,29.36l-1786.44 -27.41z"/>
  <path class="fil13" d="M13315.51 15681.74c-0.13,0 -0.32,0 -0.45,0l-1719.21 -26.39c-23.36,-0.32 -40.98,-21.24 -37.37,-44.3 24.07,-153.05 99.63,-679.43 75.4,-1116.43 -1.1,-19.95 14.34,-36.85 34.29,-37.5l1638.4 -52.27c0.39,0 0.91,0 1.3,0 21.89,0 39.96,17.29 40.87,39.32 6.93,183.68 32.9,940.31 -1.1,1209.3 -2.01,16.19 -15.81,28.27 -32.13,28.27zm-239.9 -263.77c-19.17,0 -34.85,15.29 -35.24,34.52l-2.91 137.25c-0.39,19.17 14.57,35.17 33.74,35.95l78.31 3.3c0.97,0.06 1.94,0.06 2.91,0.06 29.93,0 54.6,-19.88 55.12,-45.14l2.46 -117.69c0.59,-25.84 -24.35,-47.15 -55.37,-47.47l-78.7 -0.78c-0.13,0 -0.26,0 -0.32,0zm-226.37 -2.2c-19.11,0 -34.78,15.28 -35.17,34.52l-2.79 129.86c-0.38,19.17 14.58,35.17 33.75,35.95l114.96 4.86c0.52,0 1.04,0.06 1.56,0.06 19.04,0 34.78,-15.28 35.17,-34.52l2.85 -133.62c0.45,-19.62 -15.29,-35.82 -34.91,-36.01l-115.03 -1.1c-0.13,0 -0.26,0 -0.39,0zm-224.36 -2.2c-20.21,0 -36.79,16.19 -37.18,36.46l-2.59 120.54c-0.39,19.17 14.64,35.17 33.74,35.94l114.97 4.93c0.52,0 1.04,0 1.55,0 19.05,0 34.79,-15.22 35.17,-34.53l2.72 -126.23c0.39,-19.63 -15.28,-35.82 -34.91,-36.01l-113.15 -1.1c-0.13,0 -0.26,0 -0.32,0zm-228.31 -2.21c-19.11,0 -34.78,15.29 -35.17,34.46l-2.46 115.23c-0.39,19.17 14.57,35.1 33.74,35.88l115.03 4.92c0.52,0 1.04,0 1.55,0 18.98,0 34.72,-15.22 35.11,-34.46l2.59 -118.98c0.39,-19.56 -15.28,-35.75 -34.91,-35.95l-115.09 -1.1c-0.13,0 -0.26,0 -0.39,0zm-226.31 -2.2c-19.1,0 -34.77,15.29 -35.17,34.52l-2.31 107.78c-0.39,19.17 14.55,35.1 33.73,35.95l115.03 4.85c0.51,0 1.03,0 1.55,0 18.98,0 34.72,-15.22 35.11,-34.45l2.39 -111.6c0.46,-19.56 -15.22,-35.75 -34.84,-35.88l-115.16 -1.17c-0.07,0 -0.2,0 -0.33,0zm-226.9 -2.2c-18.8,0 -34.19,15.03 -34.6,33.87l-2.15 101.63c-0.41,18.84 14.32,34.52 33.14,35.3l116.25 4.92c0.48,0.06 0.99,0.06 1.48,0.06 18.73,0 34.17,-14.96 34.58,-33.87l2.22 -105.45c0.42,-19.23 -14.98,-35.1 -34.26,-35.29l-116.33 -1.17c-0.1,0 -0.23,0 -0.33,0zm-153 -1.49c-30.12,0 -54.63,20.01 -55.14,45.14l-1.56 73.26c-0.54,25.13 23.07,46.18 53.22,47.41l42.95 1.81c0.51,0.07 1,0.07 1.48,0.07 18.72,0 34.17,-14.96 34.58,-33.88l2.02 -95.4c0.44,-20.66 -16.13,-37.83 -36.88,-37.96l-40 -0.45c-0.24,0 -0.44,0 -0.67,0zm1286.09 -215.62c-16.91,0 -30.77,13.48 -31.15,30.51l-2.27 106.22c-0.39,17.49 13.66,31.87 31.15,31.87l83.88 0 0 0c30.18,0 54.66,-20.08 55.18,-45.15l1.56 -73.25c0.58,-25.32 -23.45,-46.44 -53.83,-47.48l-83.48 -2.72c-0.33,0 -0.72,0 -1.04,0zm-226.24 -7.44c-16.84,0 -30.77,13.53 -31.15,30.57l-2.4 113.54c-0.32,17.48 13.73,31.86 31.15,31.86l123.26 0 0 0c16.9,0 30.76,-13.53 31.15,-30.5l2.33 -109.59c0.33,-17.04 -13.08,-31.22 -30.18,-31.8l-123.12 -4.02c-0.33,0 -0.65,-0.06 -1.04,-0.06zm-226.17 -7.39c-16.91,0 -30.83,13.54 -31.16,30.51l-2.59 120.99c-0.39,17.48 13.73,31.86 31.16,31.86l123.25 0 0 0c16.91,0 30.77,-13.53 31.16,-30.5l2.46 -116.98c0.39,-17.1 -13.02,-31.28 -30.12,-31.8l-123.13 -4.08c-0.39,0 -0.71,0 -1.03,0zm-222.29 -7.25c-19.11,0 -34.78,15.22 -35.17,34.45l-2.53 120.15c-0.45,19.76 15.42,35.95 35.17,35.95l115.16 0c0,0 0,0 0,0 19.11,0 34.78,-15.29 35.17,-34.39l2.46 -116.46c0.46,-19.3 -14.76,-35.3 -34,-35.95l-115.1 -3.75c-0.38,0 -0.77,0 -1.16,0zm-226.24 -7.39c-19.04,0 -34.72,15.22 -35.17,34.46l-2.72 127.53c-0.39,19.69 15.48,35.95 35.23,35.95l115.16 0c19.11,0 34.78,-15.29 35.17,-34.46l2.66 -123.77c0.39,-19.3 -14.77,-35.3 -34.07,-35.95l-115.09 -3.76c-0.39,0 -0.72,0 -1.17,0zm-224.21 -7.38c-20.16,0 -36.78,16.13 -37.21,36.46l-2.82 133.49c-0.41,19.37 15.19,35.37 34.57,35.37l116.38 0 0 0c18.82,0 34.19,-15.03 34.6,-33.88l2.79 -132.38c0.41,-18.92 -14.49,-34.66 -33.44,-35.3l-113.62 -3.7c-0.43,-0.06 -0.84,-0.06 -1.25,-0.06zm-155.51 -5.05c-29.99,0 -54.58,19.95 -55.11,45.14l-2.51 117.69c-0.54,26.04 24.76,47.47 56.04,47.47l39.05 0 0 0c20.26,0 36.8,-16.19 37.24,-36.4l2.84 -134.59c0.44,-20.4 -15.59,-37.3 -36,-38.02l-39.32 -1.23c-0.74,-0.06 -1.49,-0.06 -2.23,-0.06zm1368.23 -201.5c-0.07,0 -0.07,0 -0.13,0l-79.99 0.13c-18.27,0 -33.1,14.64 -33.49,32.84l-2.72 128.95c-0.45,18.4 14.06,33.68 32.45,34.27l80.31 2.65c0.72,0 1.49,0.07 2.21,0.07 29.98,0 54.6,-19.95 55.12,-45.15l2.26 -106.28c0.59,-26.04 -24.74,-47.48 -56.02,-47.48zm-188.03 0.32c0,0 0,0 0,0l-118.46 0.2c-18.27,0.06 -33.1,14.64 -33.49,32.84l-2.59 121.18c-0.39,18.39 14.12,33.68 32.45,34.26l118.4 3.89c0.32,0 0.71,0 1.1,0 18.14,0 33.16,-14.51 33.55,-32.84l2.59 -125.26c0.46,-18.85 -14.7,-34.27 -33.55,-34.27zm-226.37 0.39c0,0 0,0 0,0l-118.46 0.2c-18.26,0.06 -33.16,14.64 -33.48,32.9l-2.47 113.35c-0.38,18.39 14.12,33.61 32.45,34.26l118.4 3.89c0.39,0 0.71,0 1.1,0 18.2,0 33.16,-14.58 33.55,-32.84l2.46 -117.49c0.46,-18.79 -14.7,-34.27 -33.55,-34.27zm-219.37 0.39l0 0 -132.19 0.26c-14.51,0 -26.36,11.59 -26.69,26.1l-2.46 119.05c-0.32,14.64 11.14,26.81 25.78,27.27l132.06 4.34c0.33,0 0.59,0 0.91,0 14.51,0 26.36,-11.6 26.68,-26.17l2.66 -123.58c0.26,-14.96 -11.79,-27.27 -26.75,-27.27zm-226.37 0.39c0,0 0,0 -0.06,0l-132.13 0.26c-14.51,0.06 -26.36,11.66 -26.69,26.17l-2.33 111.21c-0.32,14.63 11.21,26.74 25.84,27.26l132.07 4.28c0.26,0.06 0.58,0.06 0.84,0.06 14.51,0 26.43,-11.59 26.75,-26.16l2.4 -115.75c0.32,-15.02 -11.73,-27.33 -26.69,-27.33zm-237.12 0.45c-0.03,0 -0.06,0 -0.08,0l-111.08 0.2c-20.23,0.06 -36.75,16.26 -37.16,36.46l-1.76 82.71c-0.44,20.41 15.61,37.31 36,38.02l111.03 3.63c0.41,0 0.82,0 1.23,0 20.18,0 36.77,-16.13 37.21,-36.46l1.84 -86.54c0.44,-20.85 -16.36,-38.02 -37.23,-38.02zm-217.11 0.39c-0.03,0 -0.03,0 -0.05,0l-49.66 0.13c-30.12,0 -54.5,20.02 -55.04,45.08l-1.25 59.27c-0.54,25.32 23.46,46.43 53.83,47.41l49.18 1.62c0.33,0 0.63,0 0.94,0 15.27,0 27.81,-12.18 28.15,-27.53l2.05 -97.22c0.33,-15.8 -12.37,-28.76 -28.15,-28.76zm1320 -266.07c-0.84,0 -1.62,0 -2.46,0.07l-78.89 2.78c-17.81,0.65 -31.99,15.09 -32.38,32.84l-2.85 135.62c-0.39,18.72 14.64,34.14 33.35,34.27l81.29 0.45c0.13,0 0.26,0 0.39,0 30.12,0 54.6,-20.01 55.12,-45.14l2.39 -113.41c0.59,-26.11 -24.87,-47.48 -55.96,-47.48zm-188.15 6.74c-0.39,0 -0.84,0 -1.23,0l-118.53 4.27c-17.75,0.65 -31.93,15.03 -32.32,32.84l-2.72 126.17c-0.39,18.72 14.64,34.13 33.36,34.26l118.46 0.65c0.06,0 0.13,0 0.19,0 18.2,0 33.16,-14.57 33.55,-32.84l2.79 -131.09c0.39,-18.85 -14.83,-34.26 -33.55,-34.26zm-451.77 17.81c-0.39,0 -0.78,0 -1.16,0l-121.19 4.34c-17.03,0.58 -30.7,14.44 -31.09,31.54l-2.33 109.91c-0.39,18.01 14.06,32.84 32.06,32.97l121.06 0.65c0.06,0 0.13,0 0.19,0 17.55,0 31.87,-13.99 32.26,-31.54l2.39 -114.97c0.39,-18.13 -14.25,-32.9 -32.19,-32.9zm226.56 -9.46c-0.45,0 -0.97,0 -1.42,0.07l-121.18 5.37c-16.97,0.72 -30.51,14.51 -30.83,31.55l-2.53 117.94c-0.39,18.07 14.06,32.9 32.06,32.97l121.05 0.71c0.07,0 0.13,0 0.2,0 17.55,0 31.87,-14.06 32.25,-31.61l2.66 -124.03c0.32,-18.14 -14.31,-32.97 -32.26,-32.97zm-453.12 17.55c-0.39,0 -0.78,0 -1.17,0l-121.18 4.41c-17.03,0.58 -30.7,14.44 -31.09,31.54l-2.07 100.46c-0.39,18 14.05,32.84 32.06,32.97l120.99 0.64c0.06,0 0.13,0 0.19,0 17.56,0 31.87,-13.99 32.26,-31.54l2.26 -105.51c0.39,-18.13 -14.24,-32.97 -32.25,-32.97zm-234.26 6.87c-0.49,0 -0.98,0 -1.46,0l-102.22 3.69c-23.2,0.84 -41.72,19.63 -42.2,42.81l-1.36 63.28c-0.57,27.34 21.3,49.81 48.61,49.94l91.86 0.52c0.08,0 0.19,0 0.26,0 24.33,0 44.2,-19.43 44.72,-43.79l1.61 -75.77c0.46,-22.42 -17.6,-40.68 -39.82,-40.68zm-214.6 7.71c-0.33,0 -0.69,0 -1.02,0l-51.02 1.81c-29.2,1.1 -52.25,20.79 -52.75,45.08l-1.21 56.74c-0.57,25.91 24.53,47.28 55.65,47.47l48.15 0.26c0.05,0 0.1,0 0.18,0 15.29,0 27.81,-12.24 28.14,-27.59l2.03 -95.01c0.33,-15.87 -12.45,-28.76 -28.15,-28.76z"/>
  <path class="fil14" d="M12753.64 14886.41c-0.07,0 -0.13,0 -0.2,0l-121.05 -0.71c-18,-0.07 -32.45,-14.9 -32.06,-32.97l2.53 -117.94c0.32,-17.04 13.86,-30.83 30.83,-31.55l121.18 -5.37c0.45,-0.07 0.97,-0.07 1.42,-0.07 17.95,0 32.58,14.83 32.26,32.97l-2.66 124.03c-0.38,17.55 -14.7,31.61 -32.25,31.61z"/>
  <path class="fil14" d="M12300.9 14885.37c-0.06,0 -0.13,0 -0.19,0l-120.99 -0.64c-18.01,-0.13 -32.45,-14.97 -32.06,-32.97l2.07 -100.46c0.39,-17.1 14.06,-30.96 31.09,-31.54l121.18 -4.41c0.39,0 0.78,0 1.17,0 18.01,0 32.64,14.84 32.25,32.97l-2.26 105.51c-0.39,17.55 -14.7,31.54 -32.26,31.54z"/>
  <path class="fil14" d="M12283.09 15592.26c-0.52,0 -1.04,0 -1.55,0l-115.03 -4.85c-19.18,-0.85 -34.12,-16.78 -33.73,-35.95l2.31 -107.78c0.4,-19.23 16.07,-34.52 35.17,-34.52 0.13,0 0.26,0 0.33,0l115.16 1.17c19.62,0.13 35.3,16.32 34.84,35.88l-2.39 111.6c-0.39,19.23 -16.13,34.45 -35.11,34.45z"/>
  <path class="fil14" d="M12057.48 15582.74c-0.49,0 -1,0 -1.48,-0.06l-116.25 -4.92c-18.82,-0.78 -33.55,-16.46 -33.14,-35.3l2.15 -101.63c0.41,-18.84 15.8,-33.87 34.6,-33.87 0.1,0 0.23,0 0.33,0l116.33 1.17c19.28,0.19 34.68,16.06 34.26,35.29l-2.22 105.45c-0.41,18.91 -15.85,33.87 -34.58,33.87z"/>
  <path class="fil14" d="M12064.94 15109.41c-0.41,0 -0.82,0 -1.23,0l-111.03 -3.63c-20.39,-0.71 -36.44,-17.61 -36,-38.02l1.76 -82.71c0.41,-20.2 16.93,-36.4 37.16,-36.46l111.08 -0.2c0.02,0 0.05,0 0.08,0 20.87,0 37.67,17.17 37.23,38.02l-1.84 86.54c-0.44,20.33 -17.03,36.46 -37.21,36.46z"/>
  <path class="fil14" d="M12062.22 15358.32l0 0 -116.38 0c-19.38,0 -34.98,-16 -34.57,-35.37l2.82 -133.49c0.43,-20.33 17.05,-36.46 37.21,-36.46 0.41,0 0.82,0 1.25,0.06l113.62 3.7c18.95,0.64 33.85,16.38 33.44,35.3l-2.79 132.38c-0.41,18.85 -15.78,33.88 -34.6,33.88z"/>
  <path class="fil14" d="M12527.27 14886.67c-0.06,0 -0.13,0 -0.19,0l-121.06 -0.65c-18,-0.13 -32.45,-14.96 -32.06,-32.97l2.33 -109.91c0.39,-17.1 14.06,-30.96 31.09,-31.54l121.19 -4.34c0.38,0 0.77,0 1.16,0 17.94,0 32.58,14.77 32.19,32.9l-2.39 114.97c-0.39,17.55 -14.71,31.54 -32.26,31.54z"/>
  <path class="fil14" d="M12288.01 15358.32l-115.16 0c-19.75,0 -35.62,-16.26 -35.23,-35.95l2.72 -127.53c0.45,-19.24 16.13,-34.46 35.17,-34.46 0.45,0 0.78,0 1.17,0l115.09 3.76c19.3,0.65 34.46,16.65 34.07,35.95l-2.66 123.77c-0.39,19.17 -16.06,34.46 -35.17,34.46z"/>
  <path class="fil14" d="M12527.66 15124.57c-0.32,0 -0.58,0 -0.91,0l-132.06 -4.34c-14.64,-0.46 -26.1,-12.63 -25.78,-27.27l2.46 -119.05c0.33,-14.51 12.18,-26.1 26.69,-26.1l132.19 -0.26 0 0c14.96,0 27.01,12.31 26.75,27.27l-2.66 123.58c-0.32,14.57 -12.17,26.17 -26.68,26.17z"/>
  <path class="fil14" d="M12747.16 15131.76c-0.39,0 -0.71,0 -1.1,0l-118.4 -3.89c-18.33,-0.65 -32.83,-15.87 -32.45,-34.26l2.47 -113.35c0.32,-18.26 15.22,-32.84 33.48,-32.9l118.46 -0.2c0,0 0,0 0,0 18.85,0 34.01,15.48 33.55,34.27l-2.46 117.49c-0.39,18.26 -15.35,32.84 -33.55,32.84z"/>
  <path class="fil14" d="M12301.42 15117.18c-0.26,0 -0.58,0 -0.84,-0.06l-132.07 -4.28c-14.63,-0.52 -26.16,-12.63 -25.84,-27.26l2.33 -111.21c0.33,-14.51 12.18,-26.11 26.69,-26.17l132.13 -0.26c0.06,0 0.06,0 0.06,0 14.96,0 27.01,12.31 26.69,27.33l-2.4 115.75c-0.32,14.57 -12.24,26.16 -26.75,26.16z"/>
  <path class="fil14" d="M12514.38 15358.32c0,0 0,0 0,0l-115.16 0c-19.75,0 -35.62,-16.19 -35.17,-35.95l2.53 -120.15c0.39,-19.23 16.06,-34.45 35.17,-34.45 0.39,0 0.78,0 1.16,0l115.1 3.75c19.24,0.65 34.46,16.65 34,35.95l-2.46 116.46c-0.39,19.1 -16.06,34.39 -35.17,34.39z"/>
  <path class="fil14" d="M12744.7 15358.38l0 0 -123.25 0c-17.43,0 -31.55,-14.38 -31.16,-31.86l2.59 -120.99c0.33,-16.97 14.25,-30.51 31.16,-30.51 0.32,0 0.64,0 1.03,0l123.13 4.08c17.1,0.52 30.51,14.7 30.12,31.8l-2.46 116.98c-0.39,16.97 -14.25,30.5 -31.16,30.5z"/>
  <path class="fil14" d="M12062.4 14882.46c-0.07,0 -0.18,0 -0.26,0l-91.86 -0.52c-27.31,-0.13 -49.18,-22.6 -48.61,-49.94l1.36 -63.28c0.48,-23.18 19,-41.97 42.2,-42.81l102.22 -3.69c0.48,0 0.97,0 1.46,0 22.22,0 40.28,18.26 39.82,40.68l-1.61 75.77c-0.52,24.36 -20.39,43.79 -44.72,43.79z"/>
  <path class="fil14" d="M11831.31 15573.16c-0.48,0 -0.97,0 -1.48,-0.07l-42.95 -1.81c-30.15,-1.23 -53.76,-22.28 -53.22,-47.41l1.56 -73.26c0.51,-25.13 25.02,-45.14 55.14,-45.14 0.23,0 0.43,0 0.67,0l40 0.45c20.75,0.13 37.32,17.3 36.88,37.96l-2.02 95.4c-0.41,18.92 -15.86,33.88 -34.58,33.88z"/>
  <path class="fil14" d="M13152.42 15629.05c-0.97,0 -1.94,0 -2.91,-0.06l-78.31 -3.3c-19.17,-0.78 -34.13,-16.78 -33.74,-35.95l2.91 -137.25c0.39,-19.23 16.07,-34.52 35.24,-34.52 0.06,0 0.19,0 0.32,0l78.7 0.78c31.02,0.32 55.96,21.63 55.37,47.47l-2.46 117.69c-0.52,25.26 -25.19,45.14 -55.12,45.14z"/>
  <path class="fil14" d="M11833.26 15358.25l0 0 -39.05 0c-31.28,0 -56.58,-21.43 -56.04,-47.47l2.51 -117.69c0.53,-25.19 25.12,-45.14 55.11,-45.14 0.74,0 1.49,0 2.23,0.06l39.32 1.23c20.41,0.72 36.44,17.62 36,38.02l-2.84 134.59c-0.44,20.21 -16.98,36.4 -37.24,36.4z"/>
  <path class="fil14" d="M11847.6 15102.29c-0.31,0 -0.61,0 -0.94,0l-49.18 -1.62c-30.37,-0.98 -54.37,-22.09 -53.83,-47.41l1.25 -59.27c0.54,-25.06 24.92,-45.08 55.04,-45.08l49.66 -0.13c0.02,0 0.02,0 0.05,0 15.78,0 28.48,12.96 28.15,28.76l-2.05 97.22c-0.34,15.35 -12.88,27.53 -28.15,27.53z"/>
  <path class="fil14" d="M13168.1 14888.74c-0.13,0 -0.26,0 -0.39,0l-81.29 -0.45c-18.71,-0.13 -33.74,-15.55 -33.35,-34.27l2.85 -135.62c0.39,-17.75 14.57,-32.19 32.38,-32.84l78.89 -2.78c0.84,-0.07 1.62,-0.07 2.46,-0.07 31.09,0 56.55,21.37 55.96,47.48l-2.39 113.41c-0.52,25.13 -25,45.14 -55.12,45.14z"/>
  <path class="fil14" d="M12509.26 15601.85c-0.51,0 -1.03,0 -1.55,0l-115.03 -4.92c-19.17,-0.78 -34.13,-16.71 -33.74,-35.88l2.46 -115.23c0.39,-19.17 16.06,-34.46 35.17,-34.46 0.13,0 0.26,0 0.39,0l115.09 1.1c19.63,0.2 35.3,16.39 34.91,35.95l-2.59 118.98c-0.39,19.24 -16.13,34.46 -35.11,34.46z"/>
  <path class="fil14" d="M13162.66 15145.36c-0.72,0 -1.49,-0.07 -2.21,-0.07l-80.31 -2.65c-18.39,-0.59 -32.9,-15.87 -32.45,-34.27l2.72 -128.95c0.39,-18.2 15.22,-32.84 33.49,-32.84l79.99 -0.13c0.06,0 0.06,0 0.13,0 31.28,0 56.61,21.44 56.02,47.48l-2.26 106.28c-0.52,25.2 -25.14,45.15 -55.12,45.15z"/>
  <path class="fil14" d="M13158.06 15358.45l-83.88 0c-17.49,0 -31.54,-14.38 -31.15,-31.87l2.27 -106.22c0.38,-17.03 14.24,-30.51 31.15,-30.51 0.32,0 0.71,0 1.04,0l83.48 2.72c30.38,1.04 54.41,22.16 53.83,47.48l-1.56 73.25c-0.52,25.07 -25,45.15 -55.18,45.15z"/>
  <path class="fil14" d="M12971.07 15358.38l0 0 -123.26 0c-17.42,0 -31.47,-14.38 -31.15,-31.86l2.4 -113.54c0.38,-17.04 14.31,-30.57 31.15,-30.57 0.39,0 0.71,0.06 1.04,0.06l123.12 4.02c17.1,0.58 30.51,14.76 30.18,31.8l-2.33 109.59c-0.39,16.97 -14.25,30.5 -31.15,30.5z"/>
  <path class="fil14" d="M12961.55 15621.02c-0.52,0 -1.04,-0.06 -1.56,-0.06l-114.96 -4.86c-19.17,-0.78 -34.13,-16.78 -33.75,-35.95l2.79 -129.86c0.39,-19.24 16.06,-34.52 35.17,-34.52 0.13,0 0.26,0 0.39,0l115.03 1.1c19.62,0.19 35.36,16.39 34.91,36.01l-2.85 133.62c-0.39,19.24 -16.13,34.52 -35.17,34.52z"/>
  <path class="fil14" d="M11852.29 14881.29c-0.08,0 -0.13,0 -0.18,0l-48.15 -0.26c-31.12,-0.19 -56.22,-21.56 -55.65,-47.47l1.21 -56.74c0.5,-24.29 23.55,-43.98 52.75,-45.08l51.02 -1.81c0.33,0 0.69,0 1.02,0 15.7,0 28.48,12.89 28.15,28.76l-2.03 95.01c-0.33,15.35 -12.85,27.59 -28.14,27.59z"/>
  <path class="fil14" d="M12735.37 15611.44c-0.51,0 -1.03,0 -1.55,0l-114.97 -4.93c-19.1,-0.77 -34.13,-16.77 -33.74,-35.94l2.59 -120.54c0.39,-20.27 16.97,-36.46 37.18,-36.46 0.06,0 0.19,0 0.32,0l113.15 1.1c19.63,0.19 35.3,16.38 34.91,36.01l-2.72 126.23c-0.38,19.31 -16.12,34.53 -35.17,34.53z"/>
  <path class="fil14" d="M12978.71 14887.64c-0.06,0 -0.13,0 -0.19,0l-118.46 -0.65c-18.72,-0.13 -33.75,-15.54 -33.36,-34.26l2.72 -126.17c0.39,-17.81 14.57,-32.19 32.32,-32.84l118.53 -4.27c0.39,0 0.84,0 1.23,0 18.72,0 33.94,15.41 33.55,34.26l-2.79 131.09c-0.39,18.27 -15.35,32.84 -33.55,32.84z"/>
  <path class="fil14" d="M12973.4 15139.14c-0.39,0 -0.78,0 -1.1,0l-118.4 -3.89c-18.33,-0.58 -32.84,-15.87 -32.45,-34.26l2.59 -121.18c0.39,-18.2 15.22,-32.78 33.49,-32.84l118.46 -0.2c0,0 0,0 0,0 18.85,0 34.01,15.42 33.55,34.27l-2.59 125.26c-0.39,18.33 -15.41,32.84 -33.55,32.84z"/>
  <path class="fil15" d="M11790.83 14629.54l5.45 39.96c1.74,12.82 12.55,22.41 25.45,22.73l1.88 0c14.49,0.33 26.51,-11.2 26.81,-25.65l0.87 -40.93c0.33,-15.87 -13.37,-28.37 -29.12,-26.62l-8.22 0.91c-14.68,1.62 -25.13,14.96 -23.12,29.6z"/>
  <path class="fil15" d="M11976.3 14619.24l5.45 39.96c1.74,12.82 12.52,22.41 25.43,22.73l1.9 0c14.49,0.33 26.48,-11.14 26.79,-25.65l0.87 -40.93c0.33,-15.8 -13.35,-28.37 -29.12,-26.62l-8.2 0.91c-14.67,1.62 -25.12,15.02 -23.12,29.6z"/>
  <path class="fil15" d="M12204.46 14622.41l5.44 39.96c1.75,12.76 12.57,22.41 25.46,22.67l1.94 0.07c14.44,0.32 26.43,-11.21 26.75,-25.72l0.91 -40.87c0.32,-15.86 -13.41,-28.36 -29.15,-26.68l-8.23 0.91c-14.63,1.62 -25.13,15.02 -23.12,29.66z"/>
  <path class="fil15" d="M12426.81 14612.44l5.44 39.96c1.75,12.82 12.51,22.41 25.46,22.67l1.88 0.06c14.51,0.33 26.49,-11.2 26.81,-25.65l0.84 -40.93c0.33,-15.87 -13.34,-28.37 -29.08,-26.62l-8.22 0.91c-14.71,1.62 -25.13,14.96 -23.13,29.6z"/>
  <path class="fil15" d="M12655.13 14583.42l5.44 39.96c1.74,12.76 12.56,22.41 25.45,22.67l1.88 0.07c14.51,0.32 26.55,-11.21 26.81,-25.72l0.85 -40.87c0.38,-15.87 -13.35,-28.37 -29.09,-26.68l-8.22 0.91c-14.64,1.61 -25.13,15.02 -23.12,29.66z"/>
  <path class="fil15" d="M12897.04 14588.54l5.44 39.96c1.75,12.82 12.56,22.41 25.45,22.67l1.88 0.06c14.51,0.33 26.49,-11.2 26.82,-25.71l0.84 -40.87c0.32,-15.87 -13.34,-28.37 -29.08,-26.62l-8.23 0.91c-14.7,1.62 -25.13,14.96 -23.12,29.6z"/>
  <path class="fil15" d="M13101.19 14584.26l5.44 39.96c1.75,12.83 12.57,22.41 25.46,22.67l1.87 0.07c14.51,0.32 26.56,-11.21 26.82,-25.72l0.91 -40.86c0.32,-15.87 -13.41,-28.37 -29.15,-26.62l-8.23 0.9c-14.63,1.56 -25.13,14.96 -23.12,29.6z"/>
  <path class="fil16" d="M13023.66 14573.25c-0.52,-8.61 -9.52,-12.31 -16.13,-7.06 -18.78,14.77 -26.42,37.7 -35.68,59.14 -10.76,24.93 -21.05,50.06 -30.25,75.65 -9.72,27 -17.94,54.47 -24.22,82.38 -12.44,-33.35 -26.95,-65.8 -45.28,-96.57 -4.86,-8.16 -18.65,-3.37 -15.93,6.35 15.87,56.41 35.43,111.66 50.39,168.4 5.25,20.01 32.64,15.28 34.65,-3.95 5.57,-52.53 18.27,-102.79 36.27,-152.4 8.55,-23.58 18.14,-46.77 28.05,-69.83 8.74,-20.4 19.43,-39.44 18.13,-62.11z"/>
  <path class="fil17" d="M13049.44 14615.09c-16.32,-3.04 -22.28,17.88 -7.25,24.48 99.03,43.59 111.98,166.4 40.41,240.75 -33.09,34.39 -77.01,61.08 -118.59,84.01 -42.17,23.25 -89.25,41.06 -138.22,36.14 -113.41,-11.4 -128.82,-126.88 -94.95,-215.94 32.64,-85.69 102.53,-151.89 188.09,-183.62 11.01,-4.08 6.74,-22.09 -4.6,-18.01 -80.25,28.82 -148.58,85.56 -190.87,159.85 -38.93,68.33 -62.25,164.77 -11.34,233.36 52.72,70.99 152.79,72.22 228.25,42.69 82.9,-32.58 186.21,-92.95 219.18,-180.64 34.65,-91.78 -8.1,-203.96 -110.11,-223.07z"/>
  <path class="fil12" d="M13456.58 15712.85c-2.4,0 -4.28,-1.9 -4.28,-4.25l-5.24 -753.92c0,-2.4 1.88,-4.34 4.27,-4.34l0 0c2.4,0 4.28,1.87 4.28,4.27l5.24 753.92c0,2.37 -1.87,4.32 -4.27,4.32l0 0z"/>
  <path class="fil12" d="M13450.17 14785.82c-2.4,0 -4.28,-1.88 -4.34,-4.27l-1.82 -263.29c0,-2.4 1.95,-4.34 4.28,-4.34l0.06 0c2.34,0 4.28,1.88 4.28,4.28l1.81 263.28c0,2.4 -1.88,4.34 -4.27,4.34l0 0z"/>
  <path class="fil12" d="M11882.46 14518.84c0,25.33 -20.57,45.93 -45.95,45.93 -25.35,0 -45.92,-20.6 -45.92,-45.93 0,-25.39 20.57,-45.98 45.92,-45.98 25.38,0 45.95,20.59 45.95,45.98z"/>
  <path class="fil12" d="M12258.87 14515.28c0,25.39 -20.6,45.92 -45.99,45.92 -25.39,0 -45.92,-20.53 -45.92,-45.92 0,-25.39 20.53,-45.92 45.92,-45.92 25.39,0 45.99,20.53 45.99,45.92z"/>
  <path class="fil12" d="M12638.74 14502.91c0,25.39 -20.53,45.92 -45.92,45.92 -25.39,0 -45.99,-20.53 -45.99,-45.92 0,-25.39 20.6,-45.92 45.99,-45.92 25.39,0 45.92,20.53 45.92,45.92z"/>
  <path class="fil12" d="M13015.11 14485.23c0,25.39 -20.53,45.92 -45.92,45.92 -25.39,0 -45.98,-20.53 -45.98,-45.92 0,-25.33 20.59,-45.92 45.98,-45.92 25.39,0 45.92,20.59 45.92,45.92z"/>
  <path class="fil18" d="M13004.1 14166.95c-77.27,16.84 -69.95,220.22 -63.8,302.8 1.49,19.43 17.69,34.39 37.18,34.39 5.38,0 10.56,-2.33 14.19,-6.35 3.56,-4.01 5.31,-9.39 4.72,-14.76 -6.67,-62.44 -20.92,-242.11 36.02,-251.76 0,0 40.8,-7.19 47.67,71.89l44.17 0c0,0 -22.93,-157.45 -120.15,-136.21z"/>
  <path class="fil18" d="M12627.73 14177.38c-77.27,16.91 -70.02,220.35 -63.74,302.86 1.43,19.43 17.62,34.46 37.05,34.46 5.44,0 10.63,-2.27 14.25,-6.28 3.56,-4.08 5.31,-9.46 4.73,-14.84 -6.67,-62.37 -20.92,-242.23 36.01,-251.82 0,0 40.81,-5.63 47.67,71.7l44.18 0c0,0 -22.93,-157.26 -120.15,-136.08z"/>
  <path class="fil18" d="M12251.35 14187.87c-77.27,16.91 -70.01,220.41 -63.79,302.93 1.49,19.43 17.68,34.52 37.11,34.52 5.44,0 10.62,-2.33 14.18,-6.35 3.63,-4.01 5.38,-9.39 4.8,-14.76 -6.67,-62.44 -20.92,-242.37 36.01,-251.96 0,0 40.8,-4.59 47.67,73.13l44.17 -1.49c0,0 -22.93,-157.2 -120.15,-136.02z"/>
  <path class="fil18" d="M11874.98 14200.05c-77.3,16.84 -70,220.48 -63.77,303.06 1.46,19.43 17.65,34.52 37.11,34.52 5.43,0 10.58,-2.27 14.19,-6.28 3.61,-4.09 5.33,-9.4 4.76,-14.77 -6.68,-62.44 -20.9,-242.56 36.03,-252.21 0,0 40.8,-5.9 47.69,71.44l44.16 0c0,0 -22.98,-156.94 -120.17,-135.76z"/>
  <path class="fil19" d="M9486.3 16717.18l-1256.78 0c-50.74,0 -91.87,-37.65 -91.87,-84.05l0 -748.66c0,-44.61 38.08,-81.44 86.75,-83.93l1305.29 -66.56c54.65,-2.79 99.8,38.49 96.83,88.49l-48.48 815.21c-2.66,44.59 -42.95,79.5 -91.74,79.5z"/>
  <path class="fil8" d="M8887.26 16265.43l686.99 -523.43c-13.4,-5.84 -28.58,-8.84 -44.56,-8.02l-1305.29 66.56c-22.44,1.16 -42.62,9.61 -57.86,22.74l514.15 437.47c55.83,47.48 147.64,49.55 206.57,4.68z"/>
  <path class="fil20" d="M8791.76 16239.49c-34.17,0 -68.18,-11.19 -95.48,-33.25l-193.72 -156.45c-5.68,-4.61 -6.25,-12.55 -1.23,-17.75 2.72,-2.82 6.51,-4.25 10.32,-4.25 3.23,0 6.46,1.05 9.07,3.15l193.72 156.46c22.13,17.87 49.66,26.91 77.32,26.91 23.8,0 47.69,-6.68 68.3,-20.23l100.38 -66.03c2.43,-1.58 5.24,-2.35 8.01,-2.35 4.28,0 8.48,1.82 11.17,5.22 4.4,5.64 3.02,13.5 -3.15,17.55l-100.38 65.99c-25.45,16.75 -54.95,25.03 -84.33,25.03z"/>
  <path class="fil20" d="M8439.56 15994.72c-3.23,0 -6.48,-1.05 -9.06,-3.15l-26.11 -21.07c-5.68,-4.59 -6.22,-12.53 -1.2,-17.72 2.72,-2.82 6.51,-4.26 10.3,-4.26 3.22,0 6.48,1.05 9.09,3.16l26.07 21.05c5.69,4.61 6.22,12.55 1.21,17.74 -2.72,2.82 -6.48,4.25 -10.3,4.25z"/>
  <path class="fil19" d="M12780.19 16837.83l0 575.61c0,68.41 53.76,124.72 122.09,127.92l719.78 33.84c73.06,3.43 134.14,-54.83 134.14,-127.93l0 -609.44c0,-70.74 -57.38,-128.08 -128.11,-128.08l-719.78 0c-70.79,0 -128.12,57.34 -128.12,128.08z"/>
  <path class="fil21" d="M13040.96 17434c-9.27,0 -17.17,-0.12 -23.39,-0.22 -10.62,-0.24 -19.36,-8.05 -20.72,-18.63 -1.36,-10.62 5.18,-20.46 15.54,-23.38 55.25,-15.49 115.55,-41.82 159.92,-63.13 -211.67,-17.26 -253.96,-125.98 -262.12,-175.72 -20.6,-125.38 88.21,-267.3 242.62,-316.32 59.27,-18.77 118.79,-27.96 174.75,-27.96 92.88,0 176.04,25.28 231.87,73.89 47.54,41.38 99.16,120.62 74.81,263.25 -45.47,266.84 -461.61,288.22 -593.28,288.22zm-18.2 -5.27l0 0zm-4.41 -33.38l0.07 0 -0.07 0zm305.84 -104.36l-67.03 37.39c-3.57,1.98 -62.57,34.71 -134.34,64.72 163.42,-9.83 439.85,-56 473.6,-253.78 17.09,-100.39 -3.82,-177.04 -62.18,-227.83 -52.4,-45.58 -128.18,-63.85 -205.71,-63.85 -56.54,0 -113.99,9.68 -164.12,25.59 -134.59,42.74 -233.63,167.95 -216.33,273.47 15.22,92.72 117.94,145.89 282.71,145.89 5.51,0 11.01,-0.06 16.65,-0.19l76.75 -1.41z"/>
  <path class="fil19" d="M10186.07 20247.85l-745.82 0c-57.03,0 -103.26,-35.7 -103.26,-79.73l0 -577.32c0,-41.54 41.31,-76.11 94.94,-79.47l794.6 -49.66c62.6,-3.89 115.2,35.85 111.44,84.26l-48.82 626.95c-3.28,42.11 -48.45,74.97 -103.08,74.97z"/>
  <path class="fil21" d="M9546.46 20132.98c-20.72,0 -40.1,-7.24 -53.65,-20.2 -11.06,-10.58 -17.16,-24.15 -17.16,-38.29l0 -370.13c0,-9.04 7.35,-16.39 16.39,-16.39 9.06,0 16.42,7.35 16.42,16.39l0 370.13c0,6.5 3.81,11.52 6.99,14.57 7.4,7.07 18.93,11.12 31.14,11.12 0.82,0 1.64,-0.03 2.46,-0.06l568.13 -26.12c19.64,-0.89 35.62,-12.4 35.62,-25.63l0 -363.4c0,-6.66 -4,-11.75 -7.35,-14.85 -7.43,-6.89 -18.64,-10.81 -30.63,-10.81 -1.41,0 -2.82,0.05 -4.25,0.16l-472.63 36.13c-19.2,1.46 -29.71,11.43 -32.83,19.49 -2.58,6.66 -0.92,13.39 4.79,19.49l180.28 192.06c7.06,7.52 18.9,12.08 31.68,12.21 12.88,-0.23 25,-4.32 32.32,-11.85l198.56 -204.25c3.2,-3.31 7.48,-4.95 11.75,-4.95 4.13,0 8.26,1.55 11.43,4.64 6.5,6.3 6.66,16.7 0.33,23.18l-198.56 204.24c-13.65,14.04 -34.01,21.75 -56.11,21.8 -21.9,-0.21 -42.06,-8.43 -55.32,-22.57l-180.28 -192.05c-14.32,-15.29 -18.59,-35.39 -11.45,-53.84 8.81,-22.66 32.14,-38.1 60.93,-40.31l472.62 -36.13c2.18,-0.18 4.36,-0.26 6.53,-0.26 20.18,0 39.7,7.1 53.14,19.55 11.51,10.65 17.86,24.5 17.86,38.92l0 363.4c0,31.01 -29.4,56.68 -66.92,58.39l-568.15 26.12c-1.36,0.07 -2.72,0.1 -4.08,0.1z"/>
  <path class="fil22" d="M7855.58 17198.2c0,0 -84.58,41.16 -100.13,88.41 -12.48,37.93 -106.01,42.82 -115.25,117.4 -4.77,38.5 -33.26,69.33 -71.61,75.22 -95.53,14.65 -242.73,64.24 -266.28,230.09 -17.98,126.59 46.55,174.6 114.28,191.21 49.74,12.19 82.79,60.57 72.73,110.79 -9.65,48.18 4.74,103.86 88.19,147.88 187,98.68 373.75,-233.75 373.75,-233.75l38.27 -580.47 -133.95 -146.78z"/>
  <path class="fil23" d="M8873.1 17060.6c0,0 -373.35,590.59 -817.35,704.66 0,0 86.51,246.37 153.28,274.6 0,0 546.24,-455.77 686.61,-895.34l-22.54 -83.92z"/>
  <path class="fil6" d="M7086.93 20837.9l-12.1 99.47c-2.3,18.87 -17.15,33.78 -36.04,35.96 -31.89,3.64 -83.07,7.38 -133.14,2.07 -21.98,-2.33 -36.25,-24.59 -29.55,-45.63 12.21,-38.42 34.53,-96.04 66.73,-129.98l110.36 0c20.4,0 36.21,17.85 33.74,38.11z"/>
  <path class="fil24" d="M7951.26 19672.55l18.62 109.56c0,0 -62.37,631.8 -73.46,884.53 -1.74,39.62 8.51,78.78 29.3,112.56l108.46 176.12 -275.64 -162.65 -5.49 -33.66 45.12 -62.03 -59.1 -707.77c-3.48,-41.6 5.11,-83.29 24.71,-120.12l57.02 -107.11 130.46 -89.43z"/>
  <path class="fil6" d="M8052.33 20980.83l-87.96 0c-16.46,0 -31.99,-7.55 -42.03,-20.62 -27.43,-35.62 -84.24,-105.12 -111.41,-106.94 -36.57,-2.47 -31.9,127.56 -31.9,127.56l-20.49 0 -25.97 -161.56c-6.53,-40.64 13.68,-80.92 50.19,-99.95 0,0 8.35,61.83 53.69,89.15 45.32,27.35 184.46,125.29 184.46,125.29 0,0 17.05,-2.43 35.75,0.95 27.76,5.02 23.88,46.12 -4.33,46.12z"/>
  <path class="fil25" d="M7573.72 19724.59c0,0 -365.42,693.14 -423.5,851.41 -58.09,158.25 -78.43,290.27 -79.22,302.77 -1.21,19.54 -25.51,38.27 -92.49,38.27 -34.56,0 -51.49,-13.86 -59.78,-27.26 -7.07,-11.44 -7.43,-25.76 -1.48,-37.82 21.14,-42.77 88.22,-179.48 113.07,-241.49 29.65,-74.02 93.46,-409.51 128.45,-526.15 34.99,-116.66 74.54,-243.17 226.92,-359.73 0,0 104.6,-102.47 188.03,0z"/>
  <path class="fil26" d="M7804.55 18588.82c94.26,-399.39 -144.53,-625.31 -144.53,-625.31 150.67,-144.62 425.19,-210.44 425.19,-210.44 0,0 261.95,191.52 230.88,341.42 -18.21,87.84 -184.13,526.22 -184.13,526.22 0,0 -153.42,72.61 -327.41,-31.89z"/>
  <path class="fil11" d="M7595.56 18786.57c38.37,-115.56 208.99,-197.75 208.99,-197.75 173.99,104.5 327.41,31.89 327.41,31.89 0,0 34.41,131.51 10.66,253.73 -23.74,122.21 -172.74,907.67 -172.74,907.67 -234.75,47.56 -595.79,-47.86 -595.79,-47.86 149.53,-265.46 183.12,-832.12 221.47,-947.68z"/>
  <path class="fil27" d="M7913.97 17489.12l-76.64 344.24c-7.34,30.32 20.3,25.35 50.96,19.56 50.2,-9.45 114.9,-28.94 136.53,-68 2.2,-3.99 3.3,-8.47 3.93,-12.98l32.92 -238.69c2.61,-18.95 -7.63,-37.32 -25.1,-45.07l-63.54 -28.18c-24.46,-10.83 -52.77,3.12 -59.06,29.12z"/>
  <path class="fil28" d="M8060.75 17175.33c0,0 81.59,55.23 116.64,195.88 35.06,140.63 -21.91,191.08 -80.31,187.98 -58.41,-3.07 -143.08,-21.15 -216.44,-122.03 -73.37,-100.91 73.2,-329.31 180.11,-261.83z"/>
  <path class="fil29" d="M7954.62 17380.43c0,0 -29.89,-201.53 137.43,-170.7l33.84 35.22c0,0 81.89,-92.23 -8.74,-161.96 -90.63,-69.72 -216.41,-51.87 -285.99,75.06 -69.58,126.92 -94.83,216.13 -36.51,294.98 58.33,78.88 102.19,11.22 102.19,11.22 0,0 -26.75,-68.25 -4.55,-97.55 22.19,-29.27 50.82,17.03 50.82,17.03l11.51 -3.3z"/>
  <path class="fil30" d="M7931.75 17397.69c0,0 -14.76,-103.7 -67.71,-74.04 -52.95,29.63 19.08,96.83 47.97,119.71l19.74 -45.67z"/>
  <path class="fil31" d="M8870.54 17182.17c1.12,12.19 -44.17,20.62 -58.6,-31.32 3.97,-22.54 11.01,-121.29 28.31,-136.64 92.06,-81.69 256.25,-173.58 256.25,-173.58 18.37,28.04 -5.71,46.51 -5.71,46.51l-81.95 55.29c8.53,28.32 21.02,53.35 22.44,85.7 1.04,24.48 -8,48.45 -24.23,67.02 -16.32,18.61 -38.29,42.69 -58.06,60.95 -37.47,34.6 -78.45,26.07 -78.45,26.07z"/>
  <path class="fil32" d="M8915.05 17141.94l-12.52 -5.15c1.66,-4.07 41,-99.63 60.03,-119.53 7.22,-7.52 10.7,-13.98 10.4,-19.21 -0.18,-2.81 -1.56,-5.58 -4.23,-8.42l-66.31 35.47 -29.29 45.85 -11.43 -7.3 31.2 -48.85 77.67 -41.53 3.51 2.87c7.87,6.4 11.94,13.31 12.4,21.1 0.56,9.27 -4.05,18.87 -14.11,29.4 -14.34,14.98 -46.23,88.3 -57.32,115.3z"/>
  <path class="fil2" d="M7889.96 18799.55c0.52,0.03 1.05,0.03 1.57,0.03l684.64 -0.74c16.93,0 30.63,-13.6 30.6,-30.35 0,-16.75 -13.8,-30.58 -30.68,-30.28l-684.62 0.72c-16.93,0.03 -30.63,13.62 -30.62,30.35 0.03,16.24 12.92,29.47 29.11,30.27z"/>
  <path class="fil2" d="M9191.62 18184.51l-570.17 0c-42.06,0 -80.34,24.02 -98.27,61.64l-263.59 553.05 708.56 0c27.11,0 51.47,-16.4 61.43,-41.34l204.4 -511.74c11.81,-29.58 -10.22,-61.61 -42.36,-61.61z"/>
  <path class="fil12" d="M8789.95 18468.04c-12.38,37.98 -3.24,74.89 20.38,82.4 23.61,7.52 52.79,-17.16 65.13,-55.14 12.34,-37.98 3.23,-74.86 -20.39,-82.4 -23.61,-7.52 -52.79,17.16 -65.12,55.14z"/>
  <path class="fil33" d="M7659.04 17964.33c-93.41,94.27 -211.93,512.09 -153.13,581.88 51.78,81.24 228.06,191.85 395.93,191.98l247.69 0c-104.08,-110.56 -175.73,-138.61 -261.09,-61.29 -67.72,-28.94 -155.53,-141.04 -214.14,-191.08 -23.02,-19.64 -28.45,-53.17 -13.06,-79.22 46.57,-78.83 104.96,-159.86 123.53,-238.35 3.99,-92 -64.09,-197.29 -125.73,-203.92z"/>
  <path class="fil34" d="M12994.58 20171.14c39.06,7.76 261.6,140.2 261.6,-11.22 0,-14.26 0,-169.13 0,-169.13 0,0 -272.8,178.1 -261.6,180.35z"/>
  <path class="fil35" d="M12213.59 20897.85c0,0 -51.68,-42.92 -120.45,-36.67 -47.95,8.39 -104.19,50.81 -140.46,82.26 -6.32,5.48 -8.45,14.21 -5.32,21.87 3.1,7.66 10.8,12.63 19.26,12.45 89.91,-1.85 265.82,-7.2 265.82,-20.44 0,-17.83 -18.85,-59.47 -18.85,-59.47z"/>
  <path class="fil36" d="M12249.22 20822.2l-41.26 77.96c0,0 -93.21,7.63 -90.17,-29.04 3.05,-36.68 25.98,-81.01 25.98,-81.01l105.45 32.09z"/>
  <path class="fil6" d="M13302.95 20875.26c-64.71,-352.96 -54.28,-568.15 -54.28,-568.15 0,0 -773.99,-473.74 -847.37,-360.65 -73.39,113.1 -283.58,884.91 -283.58,884.91l140.18 38.2c0,0 267.95,-362.95 292.43,-672.84 68.98,226.02 133.29,766.1 664.08,781.59 26.29,0.77 51.62,-10.4 68.78,-30.4 17.17,-20 24.48,-46.71 19.76,-72.66z"/>
  <polygon class="fil37" points="11754.05,20866.53 11668.45,20947.54 11601.23,20880.28 11689.86,20777.89 "/>
  <path class="fil38" d="M13637.48 19108.49l71.44 263.36c3.3,12.07 -0.78,25.13 -10.17,32.25 -34.39,26.04 -124.36,77.83 -247.68,27.5 -14.12,-5.76 -23.77,-20.3 -25,-36.88l-16.97 -229.42 228.38 -56.81z"/>
  <path class="fil39" d="M13219.2 18896.06c0,0 13.99,249.16 102.08,332.94 88.15,83.77 277.21,42.49 355.32,-137.79l-96.96 -327.9 -360.44 132.75z"/>
  <path class="fil11" d="M13551.66 18986.66c-7.38,1.69 -14.51,-3.55 -15.03,-11.11 -1.42,-23.03 -6.15,-68.74 -20.79,-100.83 0,0 11.79,-31.53 -83.03,9.53 -94.82,41.05 -237.06,101.11 -313.61,51.6 -74.62,-48.27 -135.89,-264.46 67.36,-208.03 7.7,2.15 15.48,-3.51 15.61,-11.53 0.32,-34.62 10.49,-113.53 92.87,-132.1 77.08,-17.39 115.23,20 130.45,41.88 4.47,6.45 13.73,7.11 18.98,1.32 25,-27.43 91.39,-84.69 177.85,-37.41 71.25,38.93 78.89,85.51 75.2,113.81 -1.17,9.17 7.64,16.21 16.32,13.06 23.58,-8.5 60.5,-10.83 91.72,35.94 43.13,64.61 -30.38,111.2 -52.21,123.18 -3.62,1.98 -6.02,5.51 -6.41,9.58 -2.85,31.45 -13.86,171.62 -89.32,243.15 -6.47,6.2 -22.93,-0.02 -25.71,-8.57l-42.17 -130.72c-2,-6.08 -8.29,-9.63 -14.44,-8.2l-23.64 5.45z"/>
  <path class="fil40" d="M13541.23 19004.54c0,0 43.59,-128.98 89.06,-82 45.47,46.94 -24.48,135.81 -82.32,148.95l-6.74 -66.95z"/>
  <path class="fil41" d="M11710.2 20908.02c-20.93,0.25 -108.97,-38.45 -108.97,-38.45l-82.04 21.9c-71.48,-10.98 -132.87,13.35 -174.25,38.09 -9.05,5.43 -13.37,16.18 -10.66,26.35 2.71,10.17 11.86,17.32 22.38,17.5 80.97,1.32 213.9,2.68 281.24,-1.36 100.86,-6.02 116.15,-3.13 72.3,-64.03z"/>
  <path class="fil11" d="M12418.2 20037.56l-177.34 -591.28c-7.19,-24.13 -28.63,-41.23 -53.76,-42.95l-239.36 -16.39c-24.33,-1.67 -42.43,22.1 -34.37,45.12l198.21 564.65c6.39,18.21 22.71,31.07 41.91,32.98l235.69 26.2 29.02 -18.33z"/>
  <path class="fil42" d="M12389.18 20055.89c0.39,0 0.78,-0.02 1.17,-0.04l502.28 -25.39c12.44,-0.61 21.96,-11.19 21.38,-23.61 -0.65,-12.42 -11.27,-22.18 -23.64,-21.36l-502.29 25.41c-12.43,0.61 -21.95,11.19 -21.37,23.61 0.65,12.01 10.56,21.38 22.47,21.38z"/>
  <path class="fil43" d="M13136.17 19984.62c0,0 -98.52,126.85 -380.33,-37.06 0,0 -79.66,-73.27 -161.66,-65.05 -82,8.22 -141.46,119.78 -141.46,119.78l158.23 -3.25c0,0 219.7,266.58 678.98,266.58 12.89,-102.18 -92.17,-188.88 -153.76,-281z"/>
  <path class="fil44" d="M13526.21 19340.74c-59.98,13.18 -126.5,76.57 -173.52,129.97 -37.76,42.85 -65.09,92.76 -81.09,147.58 -36.01,123.51 -114.9,365.18 -167.11,388.28 118.21,167.88 138.16,222.81 138.16,222.81 -22.28,200.31 -68.79,240.39 -68.79,240.39 0,0 230.9,229.14 510.45,294.37 254.67,-187.5 293.6,-723.82 293.6,-723.82 19.95,-636.1 -273.85,-738.69 -451.7,-699.58z"/>
  <path class="fil45" d="M13240.51 20236.09c-1.62,0 -3.24,-0.66 -4.41,-1.99 -2.07,-2.41 -1.74,-6.02 0.59,-8.1 2.33,-2 231.87,-202.4 293.6,-459.59 0.77,-3.09 3.88,-4.99 6.99,-4.25 3.05,0.74 4.99,3.85 4.21,6.92 -62.63,260.87 -294.89,463.61 -297.22,465.63 -1.1,0.92 -2.47,1.38 -3.76,1.38z"/>
  <path class="fil46" d="M13684.31 20764.14c0,0 -114.58,340.81 -680.34,149.77 -274.36,-92.63 -658.44,-629.67 -658.44,-629.67 0,0 -94.76,259.8 -589.95,608.26l-110.04 -98.83c0,0 501.28,-864.01 758.02,-774.35 256.81,89.66 1359.25,523.72 1280.75,744.82z"/>
  <polygon class="fil47" points="11971.82,19429.76 12164.82,19967.79 12369.75,19962.44 12206.4,19446.28 "/>
 </g>
</svg>
